{
  "asset": {
    "version": "2.0",
    "generator": "SignLanguageProjectAvatar"
  },
  "scene": 0,
  "scenes": [
    {
      "nodes": [0, 1, 2]
    }
  ],
  "nodes": [
    {
      "name": "Head",
      "mesh": 0,
      "translation": [0, 1.2, 0]
    },
    {
      "name": "Torso",
      "mesh": 0,
      "translation": [0, 0, 0],
      "scale": [1.2, 1.5, 0.8]
    },
    {
      "name": "Arm",
      "mesh": 0,
      "translation": [0.8, 0.2, 0],
      "scale": [0.3, 1.0, 0.3]
    }
  ],
  "meshes": [
    {
      "name": "BoxMesh",
      "primitives": [
        {
          "attributes": {
            "POSITION": 0
          },
          "indices": 1
        }
      ]
    }
  ],
  "buffers": [
    {
      "uri": "data:application/octet-stream;base64,",
      "byteLength": 144
    }
  ],
  "bufferViews": [
    {
      "buffer": 0,
      "byteOffset": 0,
      "byteLength": 96,
      "target": 34962
    },
    {
      "buffer": 0,
      "byteOffset": 96,
      "byteLength": 36,
      "target": 34963
    }
  ],
  "accessors": [
    {
      "bufferView": 0,
      "byteOffset": 0,
      "componentType": 5126,
      "count": 8,
      "type": "VEC3",
      "max": [1, 1, 1],
      "min": [-1, -1, -1]
    },
    {
      "bufferView": 1,
      "byteOffset": 0,
      "componentType": 5123,
      "count": 18,
      "type": "SCALAR",
      "max": [7],
      "min": [0]
    }
  ]
}
